<svg width="43" height="48" viewBox="0 0 43 48" fill="none" xmlns="http://www.w3.org/2000/svg">
<path fill-rule="evenodd" clip-rule="evenodd" d="M30.2756 0.634862L28.1848 4.41308C30.2849 5.4722 31.9637 6.94723 33.2201 8.84137C34.4764 10.737 35.1049 12.8081 35.1049 15.0581H7.867C7.867 12.8076 8.49544 10.7366 9.75179 8.84137C11.0081 6.94723 12.6967 5.4722 14.8168 4.41308L12.7259 0.634862C12.5881 0.384729 12.637 0.193526 12.8728 0.0580444C13.1276 -0.0577358 13.3239 0.000675057 13.4616 0.230673L15.5818 4.03909C17.4465 3.23124 19.4197 2.82644 21.5008 2.82644C23.5814 2.82644 25.5544 3.23115 27.4199 4.03909L29.5399 0.230673C29.677 0.000675057 29.8733 -0.0582565 30.1287 0.0580444C30.364 0.192919 30.4128 0.384729 30.2756 0.634862ZM15.2868 10.2411C15.6007 10.2411 15.8708 10.1306 16.0969 9.90856C16.3219 9.68759 16.4351 9.42357 16.4358 9.11554C16.4358 8.80804 16.3224 8.54454 16.0969 8.32253C15.8708 8.10156 15.6007 7.99107 15.2868 7.99107C14.9729 7.99107 14.7077 8.10156 14.4919 8.32253C14.2761 8.54402 14.1681 8.80804 14.1681 9.11554C14.1681 9.42409 14.2761 9.68759 14.4919 9.90856C14.7077 10.1306 14.9723 10.2411 15.2868 10.2411ZM27.7136 10.2411C28.027 10.2411 28.2922 10.1306 28.5085 9.90856C28.7244 9.68759 28.8322 9.42357 28.8322 9.11554C28.8322 8.80804 28.7245 8.54454 28.5085 8.32253C28.2921 8.10156 28.0276 7.99107 27.7136 7.99107C27.399 7.99107 27.1291 8.10156 26.9034 8.32253C26.6774 8.54402 26.5646 8.80804 26.5646 9.11554C26.5646 9.42409 26.6774 9.68759 26.9034 9.90856C27.1291 10.1306 27.399 10.2411 27.7136 10.2411ZM1.65287 16.4132C2.24171 15.8363 2.95804 15.5479 3.80231 15.5479C4.62699 15.5479 5.33402 15.8363 5.92295 16.4132C6.51187 16.99 6.80629 17.6821 6.80629 18.49V30.8938C6.80629 31.7218 6.51621 32.423 5.93765 32.9999C5.35794 33.5768 4.64596 33.8652 3.80231 33.8652C2.95804 33.8652 2.24171 33.5767 1.65287 32.9999C1.06395 32.423 0.769531 31.7218 0.769531 30.8938V18.49C0.769531 17.6821 1.06404 16.99 1.65287 16.4132ZM7.98396 35.3072C7.98396 36.1927 8.29787 36.9422 8.92577 37.5573C9.55421 38.1724 10.3194 38.4799 11.2226 38.4799H13.4018L13.4317 45.0287C13.4317 45.8556 13.7261 46.5578 14.315 47.1348C14.9038 47.7117 15.6109 48.0001 16.4351 48.0001C17.2788 48.0001 17.9956 47.7117 18.5845 47.1348C19.1734 46.5578 19.4678 45.8557 19.4678 45.0287V38.4805H23.5314V45.0287C23.5314 45.8556 23.8257 46.5578 24.4146 47.1348C25.0036 47.7117 25.7197 48.0001 26.5641 48.0001C27.4078 48.0001 28.1246 47.7117 28.7135 47.1348C29.3024 46.5578 29.5968 45.8557 29.5968 45.0287V38.4805H31.8054C32.6886 38.4805 33.4439 38.1729 34.073 37.5578C34.7008 36.9427 35.0149 36.1932 35.0149 35.3078V16.0955H7.98396V35.3072ZM37.0779 16.3988C37.6668 15.8321 38.3733 15.5479 39.1981 15.5479C40.0418 15.5479 40.7586 15.8321 41.3475 16.3988C41.9364 16.9666 42.2307 17.664 42.2307 18.49V30.8938C42.2307 31.7218 41.9364 32.423 41.3475 32.9999C40.7586 33.5768 40.0418 33.8652 39.1981 33.8652C38.3738 33.8652 37.6668 33.5768 37.0779 32.9999C36.4889 32.423 36.1946 31.7218 36.1946 30.8938V18.49C36.1946 17.6641 36.489 16.9666 37.0779 16.3988Z" fill="url(#paint0_linear_176_3143)"/>
<defs>
<linearGradient id="paint0_linear_176_3143" x1="0.769531" y1="0" x2="44.0868" y2="1.7379" gradientUnits="userSpaceOnUse">
<stop stop-color="#AA04BE"/>
<stop offset="1" stop-color="#4E5DFA"/>
</linearGradient>
</defs>
</svg>
