<svg width="41" height="50" viewBox="0 0 41 50" fill="none" xmlns="http://www.w3.org/2000/svg">
<path d="M39.6955 17.045C39.4033 17.27 34.2456 20.155 34.2456 26.57C34.2456 33.99 40.8086 36.615 41.005 36.68C40.9748 36.84 39.9624 40.275 37.5447 43.775C35.3889 46.855 33.1375 49.93 29.7124 49.93C26.2873 49.93 25.4059 47.955 21.452 47.955C17.5988 47.955 16.2287 49.995 13.0958 49.995C9.9629 49.995 7.77691 47.145 5.26351 43.645C2.35221 39.535 0 33.15 0 27.09C0 17.37 6.36659 12.215 12.6324 12.215C15.9618 12.215 18.7371 14.385 20.8274 14.385C22.817 14.385 25.9197 12.085 29.7074 12.085C31.1429 12.085 36.3006 12.215 39.6955 17.045ZM27.9092 7.97C29.4757 6.125 30.5838 3.565 30.5838 1.005C30.5838 0.65 30.5536 0.29 30.4881 0C27.9394 0.095 24.9073 1.685 23.0789 3.79C21.6434 5.41 20.3036 7.97 20.3036 10.565C20.3036 10.955 20.369 11.345 20.3993 11.47C20.5604 11.5 20.8224 11.535 21.0843 11.535C23.371 11.535 26.2471 10.015 27.9092 7.97Z" fill="url(#paint0_linear_176_3101)"/>
<defs>
<linearGradient id="paint0_linear_176_3101" x1="0" y1="0" x2="42.8474" y2="1.6323" gradientUnits="userSpaceOnUse">
<stop stop-color="#AA04BE"/>
<stop offset="1" stop-color="#4E5DFA"/>
</linearGradient>
</defs>
</svg>
