<svg width="54" height="39" viewBox="0 0 54 39" fill="none" xmlns="http://www.w3.org/2000/svg">
<path d="M23.3372 30.424C23.3372 30.424 23.4728 30.2923 23.3372 30.2923C17.097 17.1217 8.55076 6.9804 8.55076 6.9804C8.55076 6.9804 3.93847 11.195 4.20978 15.5413C4.34544 18.8339 6.92289 20.6778 6.92289 20.6778C10.9926 24.4972 20.7597 29.3703 23.0659 30.424H23.3372ZM21.7093 33.7166C21.7093 33.5849 21.438 33.5849 21.438 33.5849L5.15937 34.1117C6.92289 37.141 9.90731 39.5117 13.0274 38.8531C15.1979 38.3263 20.0815 35.0337 21.5737 33.98C21.845 33.7166 21.7093 33.7166 21.7093 33.7166ZM21.9806 32.2679C22.1163 32.1362 21.9806 32.0045 21.9806 32.0045C14.7909 27.2631 0.954053 20.151 0.954053 20.151C-0.266845 23.9704 1.36102 26.9996 1.36102 26.9996C3.12454 30.6874 6.51592 31.741 6.51592 31.741C8.00813 32.3996 9.636 32.3996 9.636 32.3996H21.845C21.9806 32.3996 21.9806 32.2679 21.9806 32.2679ZM23.0659 0.131706C22.3876 0.131706 20.4884 0.658528 20.4884 0.658528C16.1475 1.71217 15.1979 5.53163 15.1979 5.53163C14.3839 7.90234 15.1979 10.5364 15.1979 10.5364C16.6901 16.7266 23.7442 26.9996 25.2364 29.1069L25.372 29.2386C25.5077 29.2386 25.5077 29.1069 25.5077 29.1069C27.9495 6.05846 23.0659 0.131706 23.0659 0.131706ZM28.4921 29.1069C28.6278 29.1069 28.7634 28.9752 28.7634 28.9752C30.3913 26.7362 37.3097 16.5949 38.8019 10.4047C38.8019 10.4047 39.6158 7.37551 38.8019 5.39993C38.8019 5.39993 37.7167 1.58047 33.3757 0.526822C33.3757 0.526822 32.1548 0.263411 30.7982 0C30.7982 0 25.9146 6.05846 28.3564 28.8435C28.3564 29.1069 28.4921 29.1069 28.4921 29.1069ZM32.2904 33.5849C32.2904 33.5849 32.1548 33.5849 32.1548 33.7166V33.98C33.7827 35.0337 38.3949 38.3263 40.7011 38.8531C40.7011 38.8531 44.9064 40.3019 48.5691 34.1117L32.2904 33.5849ZM53.0457 20.0193C53.0457 20.0193 39.2089 27.2631 32.0191 32.0045C32.0191 32.0045 31.8835 32.1362 31.8835 32.2679C31.8835 32.2679 31.8835 32.3996 32.0191 32.3996H44.4994C44.4994 32.3996 45.7203 32.3996 47.3482 31.741C47.3482 31.741 50.7396 30.6874 52.6388 26.8679C52.6388 26.7362 54.2666 23.707 53.0457 20.0193ZM30.6626 30.424C30.6626 30.424 30.7982 30.5557 30.9339 30.424C33.24 29.2386 43.0072 24.4972 47.0769 20.6778C47.0769 20.6778 49.6543 18.7022 49.79 15.5413C50.0613 11.0633 45.449 6.9804 45.449 6.9804C45.449 6.9804 36.9027 16.8583 30.6626 30.1606C30.6626 30.1606 30.5269 30.2923 30.6626 30.424Z" fill="url(#paint0_linear_176_3172)"/>
<defs>
<linearGradient id="paint0_linear_176_3172" x1="0.5" y1="0" x2="55.7414" y2="3.48685" gradientUnits="userSpaceOnUse">
<stop stop-color="#AA04BE"/>
<stop offset="1" stop-color="#4E5DFA"/>
</linearGradient>
</defs>
</svg>
