<svg width="25" height="28" viewBox="0 0 25 28" fill="none" xmlns="http://www.w3.org/2000/svg">
<path fill-rule="evenodd" clip-rule="evenodd" d="M20.3338 27.54H14.9772L6.01193 13.9794V27.54H0.655273V5.54973H6.01193L14.9772 19.1668V14.7123H18.4731V13.3027H15.8511V10.3143H18.755V12.7952H22.1663V16.5731H20.3338V27.54ZM23.294 11.9212H23.8579V11.3293H23.294V11.9212ZM20.7286 10.8218H21.546V9.97606H20.7286V10.8218ZM18.1911 8.45352H19.1215V7.52322H18.1911V8.45352ZM16.2176 3.7454H16.6123V5.43696H18.4731V3.54804H16.9224V3.04058H16.2459V3.7454H16.2176ZM15.5128 7.97433H17.0635V6.3955H15.5128V7.97433ZM23.7451 3.06876H24.1399V2.64587H23.7451V3.06876ZM20.7003 7.66419H21.9689V6.36731H20.7003V7.66419ZM20.3338 1.7437H21.2642V0.785156H20.3338V1.7437Z" fill="white"/>
</svg>
