<svg width="18" height="20" viewBox="0 0 18 20" fill="none" xmlns="http://www.w3.org/2000/svg">
<path fill-rule="evenodd" clip-rule="evenodd" d="M12.8645 0.264526L11.9934 1.83878C12.8684 2.28008 13.5679 2.89468 14.0914 3.6839C14.6148 4.47375 14.8767 5.33671 14.8767 6.2742H3.52759C3.52759 5.33649 3.78944 4.47356 4.31292 3.6839C4.8364 2.89468 5.53996 2.28008 6.42333 1.83878L5.55214 0.264526C5.49473 0.160304 5.51507 0.080636 5.61335 0.0241852C5.71952 -0.0240566 5.80129 0.000281274 5.85869 0.0961138L6.74207 1.68296C7.51906 1.34635 8.34123 1.17768 9.20832 1.17768C10.0752 1.17768 10.8973 1.34631 11.6746 1.68296L12.558 0.0961138C12.6151 0.000281274 12.6969 -0.0242736 12.8033 0.0241852C12.9014 0.0803828 12.9217 0.160304 12.8645 0.264526ZM6.61918 4.26711C6.74997 4.26711 6.86249 4.22107 6.9567 4.12857C7.05047 4.0365 7.09765 3.92649 7.09791 3.79814C7.09791 3.67002 7.05069 3.56023 6.9567 3.46772C6.86249 3.37565 6.74997 3.32961 6.61918 3.32961C6.48838 3.32961 6.37789 3.37565 6.28796 3.46772C6.19803 3.56001 6.15307 3.67002 6.15307 3.79814C6.15307 3.9267 6.19803 4.0365 6.28796 4.12857C6.37789 4.22107 6.48812 4.26711 6.61918 4.26711ZM11.797 4.26711C11.9276 4.26711 12.0381 4.22107 12.1282 4.12857C12.2182 4.0365 12.2631 3.92649 12.2631 3.79814C12.2631 3.67002 12.2182 3.56023 12.1282 3.46772C12.0381 3.37565 11.9278 3.32961 11.797 3.32961C11.6659 3.32961 11.5535 3.37565 11.4594 3.46772C11.3653 3.56001 11.3183 3.67002 11.3183 3.79814C11.3183 3.9267 11.3653 4.0365 11.4594 4.12857C11.5535 4.22107 11.6659 4.26711 11.797 4.26711ZM0.938371 6.83882C1.18372 6.59848 1.48219 6.47831 1.83397 6.47831C2.17759 6.47831 2.47218 6.59848 2.71757 6.83882C2.96295 7.07916 3.08563 7.36753 3.08563 7.70417V12.8724C3.08563 13.2174 2.96476 13.5096 2.7237 13.7499C2.48215 13.9903 2.18549 14.1105 1.83397 14.1105C1.48219 14.1105 1.18372 13.9903 0.938371 13.7499C0.692986 13.5096 0.570312 13.2174 0.570312 12.8724V7.70417C0.570312 7.36756 0.693023 7.07916 0.938371 6.83882ZM3.57632 14.7113C3.57632 15.0803 3.70712 15.3926 3.96875 15.6489C4.2306 15.9052 4.54941 16.0333 4.92577 16.0333H5.83377L5.84622 18.7619C5.84622 19.1065 5.96889 19.3991 6.21424 19.6395C6.45959 19.8799 6.75422 20 7.09762 20C7.44917 20 7.74783 19.8799 7.99321 19.6395C8.2386 19.3991 8.36127 19.1065 8.36127 18.7619V16.0335H10.0544V18.7619C10.0544 19.1065 10.1771 19.3991 10.4224 19.6395C10.6678 19.8799 10.9662 20 11.318 20C11.6696 20 11.9682 19.8799 12.2136 19.6395C12.459 19.3991 12.5817 19.1065 12.5817 18.7619V16.0335H13.5019C13.8699 16.0335 14.1846 15.9054 14.4468 15.6491C14.7083 15.3928 14.8392 15.0805 14.8392 14.7116V6.70646H3.57632V14.7113ZM15.6988 6.83285C15.9442 6.59671 16.2385 6.47831 16.5822 6.47831C16.9338 6.47831 17.2324 6.59671 17.4778 6.83285C17.7232 7.06943 17.8458 7.36 17.8458 7.70417V12.8724C17.8458 13.2174 17.7232 13.5096 17.4778 13.7499C17.2324 13.9903 16.9338 14.1105 16.5822 14.1105C16.2388 14.1105 15.9442 13.9903 15.6988 13.7499C15.4534 13.5096 15.3308 13.2174 15.3308 12.8724V7.70417C15.3308 7.36004 15.4534 7.06943 15.6988 6.83285Z" fill="url(#paint0_linear_176_3481)"/>
<defs>
<linearGradient id="paint0_linear_176_3481" x1="0.570312" y1="0" x2="18.6192" y2="0.724126" gradientUnits="userSpaceOnUse">
<stop stop-color="#AA04BE"/>
<stop offset="1" stop-color="#4E5DFA"/>
</linearGradient>
</defs>
</svg>
