<svg width="17" height="20" viewBox="0 0 17 20" fill="none" xmlns="http://www.w3.org/2000/svg">
<path d="M15.8782 6.818C15.7613 6.908 13.6982 8.062 13.6982 10.628C13.6982 13.596 16.3234 14.646 16.402 14.672C16.3899 14.736 15.985 16.11 15.0179 17.51C14.1556 18.742 13.255 19.972 11.885 19.972C10.5149 19.972 10.1624 19.182 8.58079 19.182C7.03951 19.182 6.4915 19.998 5.23833 19.998C3.98516 19.998 3.11076 18.858 2.10541 17.458C0.940885 15.814 0 13.26 0 10.836C0 6.948 2.54663 4.886 5.05297 4.886C6.38472 4.886 7.49484 5.754 8.33096 5.754C9.12678 5.754 10.3679 4.834 11.8829 4.834C12.4572 4.834 14.5202 4.886 15.8782 6.818ZM11.1637 3.188C11.7903 2.45 12.2335 1.426 12.2335 0.402C12.2335 0.26 12.2214 0.116 12.1952 0C11.1758 0.038 9.9629 0.674 9.23155 1.516C8.65735 2.164 8.12143 3.188 8.12143 4.226C8.12143 4.382 8.14762 4.538 8.15971 4.588C8.22418 4.6 8.32894 4.614 8.43371 4.614C9.3484 4.614 10.4988 4.006 11.1637 3.188Z" fill="url(#paint0_linear_176_3477)"/>
<defs>
<linearGradient id="paint0_linear_176_3477" x1="0" y1="0" x2="17.139" y2="0.652919" gradientUnits="userSpaceOnUse">
<stop stop-color="#AA04BE"/>
<stop offset="1" stop-color="#4E5DFA"/>
</linearGradient>
</defs>
</svg>
