<svg width="29" height="54" viewBox="0 0 29 54" fill="none" xmlns="http://www.w3.org/2000/svg">
<path fill-rule="evenodd" clip-rule="evenodd" d="M7.78292 37.5488H-3.65625V49.3156H6.67373V62.207H21.2315V47.3171H7.78292V37.5488Z" fill="white"/>
<path d="M15.5625 36.2109H18.7835V39.5496H15.5625V36.2109Z" fill="white"/>
<path d="M5.5625 26.541H9.23163V30.2134H5.5625V26.541Z" fill="white"/>
<path d="M-5 22.1055H1.1155V28.3195H-5V22.1055Z" fill="white"/>
<path fill-rule="evenodd" clip-rule="evenodd" d="M0.573459 8.88867H-2.0957V11.6535H-0.660858V18.3252H6.66951V10.8883H0.573459V8.88867Z" fill="white"/>
<path d="M14.0039 0H17.6658V3.77496H14.0039V0Z" fill="white"/>
<path d="M27.4453 7.32812H28.9997V8.99464H27.4453V7.32812Z" fill="white"/>
<path d="M15.4473 21.9941H20.4512V27.0983H15.4473V21.9941Z" fill="white"/>
<path d="M25.6641 41.5391H27.8916V43.8809H25.6641V41.5391Z" fill="white"/>
</svg>
