<svg width="1440" height="822" viewBox="0 0 1440 822" fill="none" xmlns="http://www.w3.org/2000/svg">
<g clip-path="url(#clip0_176_3522)">
<g opacity="0.6">
<path d="M-9.7793 390.995C223.442 291.496 245.225 419.173 393.73 379.499C515.365 347.003 695.701 200.002 913.586 239.999C1128.81 279.507 1263.68 482.997 1451.42 482.997" stroke="#BFC0C2" stroke-width="2" stroke-dasharray="5 5"/>
<path d="M-23 409.969C145.974 250.072 547.358 161.705 769.212 306.5C1074.88 506 1273.25 437.797 1462 140.5" stroke="#BFC0C2" stroke-width="2"/>
<path d="M-7.66211 239.5C312.29 64 414.278 554.822 692.001 508.5C969.475 462.22 1076.47 32.5 1447.19 2" stroke="url(#paint0_linear_176_3522)" stroke-width="2"/>
</g>
<g opacity="0.2">
<path d="M960.734 501.711V492.191H950.867V501.711H960.734Z" fill="url(#paint1_linear_176_3522)"/>
<path d="M989.309 531.271V520.427H978.455V531.271H989.309Z" fill="url(#paint2_linear_176_3522)"/>
<path d="M1002.42 562.484V544.41H984.059V562.484H1002.42Z" fill="url(#paint3_linear_176_3522)"/>
<path fill-rule="evenodd" clip-rule="evenodd" d="M1041.48 546.014V553.902H1033.31V549.662H1013.59V527.997H1035.57V546.014H1041.48Z" fill="url(#paint4_linear_176_3522)"/>
<path d="M1067.75 506.316V495.494H1056.6V506.316H1067.75Z" fill="url(#paint5_linear_176_3522)"/>
<path d="M1046.09 466.594V462H1041.16V466.594H1046.09Z" fill="url(#paint6_linear_176_3522)"/>
<path d="M1002.75 502.057V487.268H987.665V502.057H1002.75Z" fill="url(#paint7_linear_176_3522)"/>
<path d="M944.984 471.857V465.274H938.063V471.857H944.984Z" fill="url(#paint8_linear_176_3522)"/>
</g>
<g opacity="0.2" clip-path="url(#clip1_176_3522)">
<path d="M934.6 540.806C934.6 540.806 934.728 540.682 934.6 540.682C928.698 528.268 920.615 518.709 920.615 518.709C920.615 518.709 916.252 522.681 916.509 526.778C916.637 529.881 919.075 531.619 919.075 531.619C922.924 535.22 932.162 539.813 934.343 540.806H934.6ZM933.06 543.91C933.06 543.785 932.804 543.785 932.804 543.785L917.407 544.282C919.075 547.137 921.898 549.372 924.849 548.751C926.901 548.255 931.52 545.151 932.932 544.158C933.188 543.91 933.06 543.91 933.06 543.91ZM933.317 542.544C933.445 542.42 933.317 542.296 933.317 542.296C926.517 537.827 913.429 531.123 913.429 531.123C912.275 534.723 913.814 537.578 913.814 537.578C915.482 541.054 918.69 542.047 918.69 542.047C920.101 542.668 921.641 542.668 921.641 542.668H933.188C933.317 542.668 933.317 542.544 933.317 542.544ZM934.343 512.253C933.702 512.253 931.905 512.75 931.905 512.75C927.8 513.743 926.901 517.343 926.901 517.343C926.132 519.578 926.901 522.06 926.901 522.06C928.313 527.895 934.985 537.578 936.396 539.565L936.524 539.689C936.653 539.689 936.653 539.565 936.653 539.565C938.962 517.84 934.343 512.253 934.343 512.253ZM939.475 539.565C939.604 539.565 939.732 539.44 939.732 539.44C941.272 537.33 947.815 527.771 949.227 521.936C949.227 521.936 949.996 519.081 949.227 517.219C949.227 517.219 948.2 513.619 944.094 512.625C944.094 512.625 942.94 512.377 941.657 512.129C941.657 512.129 937.038 517.84 939.347 539.316C939.347 539.565 939.475 539.565 939.475 539.565ZM943.068 543.785C943.068 543.785 942.94 543.785 942.94 543.91V544.158C944.479 545.151 948.842 548.255 951.023 548.751C951.023 548.751 955 550.117 958.465 544.282L943.068 543.785ZM962.699 530.999C962.699 530.999 949.611 537.827 942.811 542.296C942.811 542.296 942.683 542.42 942.683 542.544C942.683 542.544 942.683 542.668 942.811 542.668H954.615C954.615 542.668 955.77 542.668 957.31 542.047C957.31 542.047 960.517 541.054 962.314 537.454C962.314 537.33 963.853 534.475 962.699 530.999ZM941.528 540.806C941.528 540.806 941.657 540.93 941.785 540.806C943.966 539.689 953.204 535.22 957.053 531.619C957.053 531.619 959.491 529.757 959.619 526.778C959.876 522.557 955.514 518.709 955.514 518.709C955.514 518.709 947.43 528.019 941.528 540.558C941.528 540.558 941.4 540.682 941.528 540.806Z" fill="url(#paint9_linear_176_3522)"/>
</g>
<g opacity="0.2">
<path d="M908.014 103.172L908.014 92.5832L918.989 92.5832L918.989 103.172L908.014 103.172Z" fill="url(#paint10_linear_176_3522)"/>
<path d="M876.23 136.051L876.23 123.989L888.303 123.989L888.303 136.051L876.23 136.051Z" fill="url(#paint11_linear_176_3522)"/>
<path d="M861.641 170.771L861.641 150.667L882.069 150.667L882.069 170.771L861.641 170.771Z" fill="url(#paint12_linear_176_3522)"/>
<path fill-rule="evenodd" clip-rule="evenodd" d="M818.197 152.448L818.197 161.223L827.286 161.223L827.286 156.506L849.219 156.506L849.219 132.408L824.771 132.408L824.771 152.448L818.197 152.448Z" fill="url(#paint13_linear_176_3522)"/>
<path d="M788.975 108.295L788.975 96.2567L801.384 96.2567L801.384 108.295L788.975 108.295Z" fill="url(#paint14_linear_176_3522)"/>
<path d="M813.07 64.1104L813.07 59.0006L818.549 59.0006L818.549 64.1104L813.07 64.1104Z" fill="url(#paint15_linear_176_3522)"/>
<path d="M861.277 103.557L861.277 87.1068L878.057 87.1068L878.057 103.557L861.277 103.557Z" fill="url(#paint16_linear_176_3522)"/>
<path d="M925.531 69.9639L925.531 62.6411L933.23 62.6411L933.23 69.9639L925.531 69.9639Z" fill="url(#paint17_linear_176_3522)"/>
</g>
<g opacity="0.2" clip-path="url(#clip2_176_3522)">
<path d="M799.811 141.197C799.511 141.429 794.208 144.401 794.208 151.011C794.208 158.657 800.956 161.361 801.157 161.428C801.126 161.593 800.086 165.133 797.6 168.739C795.384 171.913 793.069 175.081 789.547 175.081C786.026 175.081 785.12 173.046 781.055 173.046C777.093 173.046 775.685 175.148 772.464 175.148C769.243 175.148 766.995 172.211 764.411 168.605C761.418 164.37 759 157.791 759 151.547C759 141.532 765.546 136.22 771.987 136.22C775.41 136.22 778.264 138.456 780.413 138.456C782.458 138.456 785.648 136.086 789.542 136.086C791.018 136.086 796.321 136.22 799.811 141.197ZM787.694 131.846C789.304 129.945 790.443 127.307 790.443 124.669C790.443 124.304 790.412 123.933 790.345 123.634C787.725 123.732 784.607 125.37 782.727 127.539C781.252 129.208 779.874 131.846 779.874 134.52C779.874 134.922 779.942 135.324 779.973 135.452C780.138 135.483 780.408 135.519 780.677 135.519C783.028 135.519 785.985 133.953 787.694 131.846Z" fill="url(#paint18_linear_176_3522)"/>
</g>
<g opacity="0.2" clip-path="url(#clip3_176_3522)">
<path fill-rule="evenodd" clip-rule="evenodd" d="M1205.49 234.201L1203.26 238.256C1205.5 239.393 1207.29 240.976 1208.64 243.009C1209.98 245.044 1210.65 247.267 1210.65 249.682H1181.59C1181.59 247.266 1182.26 245.043 1183.6 243.009C1184.94 240.976 1186.74 239.393 1189.01 238.256L1186.77 234.201C1186.63 233.932 1186.68 233.727 1186.93 233.582C1187.2 233.458 1187.41 233.52 1187.56 233.767L1189.82 237.855C1191.81 236.988 1193.91 236.553 1196.13 236.553C1198.35 236.553 1200.46 236.988 1202.45 237.855L1204.71 233.767C1204.86 233.52 1205.07 233.457 1205.34 233.582C1205.59 233.727 1205.64 233.932 1205.49 234.201ZM1189.51 244.511C1189.84 244.511 1190.13 244.393 1190.37 244.155C1190.61 243.917 1190.73 243.634 1190.73 243.303C1190.73 242.973 1190.61 242.691 1190.37 242.452C1190.13 242.215 1189.84 242.097 1189.51 242.097C1189.17 242.097 1188.89 242.215 1188.66 242.452C1188.43 242.69 1188.31 242.973 1188.31 243.303C1188.31 243.635 1188.43 243.917 1188.66 244.155C1188.89 244.393 1189.17 244.511 1189.51 244.511ZM1202.76 244.511C1203.1 244.511 1203.38 244.393 1203.61 244.155C1203.84 243.917 1203.95 243.634 1203.95 243.303C1203.95 242.973 1203.84 242.691 1203.61 242.452C1203.38 242.215 1203.1 242.097 1202.76 242.097C1202.43 242.097 1202.14 242.215 1201.9 242.452C1201.66 242.69 1201.54 242.973 1201.54 243.303C1201.54 243.635 1201.66 243.917 1201.9 244.155C1202.14 244.393 1202.43 244.511 1202.76 244.511ZM1174.96 251.136C1175.59 250.517 1176.36 250.207 1177.26 250.207C1178.14 250.207 1178.89 250.517 1179.52 251.136C1180.15 251.755 1180.46 252.498 1180.46 253.365V266.678C1180.46 267.567 1180.15 268.32 1179.53 268.939C1178.92 269.558 1178.16 269.868 1177.26 269.868C1176.36 269.868 1175.59 269.558 1174.96 268.939C1174.34 268.32 1174.02 267.567 1174.02 266.678V253.365C1174.02 252.498 1174.34 251.755 1174.96 251.136ZM1181.72 271.416C1181.72 272.366 1182.05 273.17 1182.72 273.831C1183.39 274.491 1184.21 274.821 1185.17 274.821H1187.5L1187.53 281.85C1187.53 282.737 1187.84 283.491 1188.47 284.11C1189.1 284.73 1189.85 285.039 1190.73 285.039C1191.63 285.039 1192.4 284.73 1193.02 284.11C1193.65 283.491 1193.97 282.737 1193.97 281.85V274.821H1198.3V281.85C1198.3 282.737 1198.61 283.491 1199.24 284.11C1199.87 284.73 1200.63 285.039 1201.54 285.039C1202.44 285.039 1203.2 284.73 1203.83 284.11C1204.46 283.491 1204.77 282.737 1204.77 281.85V274.821H1207.13C1208.07 274.821 1208.87 274.491 1209.54 273.831C1210.21 273.171 1210.55 272.366 1210.55 271.416V250.795H1181.72V271.416ZM1212.75 251.121C1213.38 250.512 1214.13 250.207 1215.01 250.207C1215.91 250.207 1216.68 250.512 1217.3 251.121C1217.93 251.73 1218.25 252.479 1218.25 253.365V266.678C1218.25 267.567 1217.93 268.32 1217.3 268.939C1216.68 269.558 1215.91 269.868 1215.01 269.868C1214.13 269.868 1213.38 269.558 1212.75 268.939C1212.12 268.32 1211.81 267.567 1211.81 266.678V253.365C1211.81 252.479 1212.12 251.73 1212.75 251.121Z" fill="url(#paint19_linear_176_3522)"/>
</g>
<g opacity="0.2">
<path d="M1226.27 216.899V208.534H1217.59V216.899H1226.27Z" fill="url(#paint20_linear_176_3522)"/>
<path d="M1251.38 242.875V233.345H1241.84V242.875H1251.38Z" fill="url(#paint21_linear_176_3522)"/>
<path d="M1262.9 270.307V254.423H1246.76V270.307H1262.9Z" fill="url(#paint22_linear_176_3522)"/>
<path fill-rule="evenodd" clip-rule="evenodd" d="M1297.23 255.833V262.766H1290.05V259.039H1272.72V240H1292.03V255.833H1297.23Z" fill="url(#paint23_linear_176_3522)"/>
<path d="M1320.31 220.946V211.435H1310.51V220.946H1320.31Z" fill="url(#paint24_linear_176_3522)"/>
<path d="M1301.28 186.037V182H1296.95V186.037H1301.28Z" fill="url(#paint25_linear_176_3522)"/>
<path d="M1263.19 217.203V204.206H1249.93V217.203H1263.19Z" fill="url(#paint26_linear_176_3522)"/>
<path d="M1212.42 190.662V184.877H1206.34V190.662H1212.42Z" fill="url(#paint27_linear_176_3522)"/>
</g>
</g>
<defs>
<linearGradient id="paint0_linear_176_3522" x1="-7.66211" y1="2" x2="1488.46" y2="200.391" gradientUnits="userSpaceOnUse">
<stop stop-color="#AA04BE"/>
<stop offset="1" stop-color="#4E5DFA"/>
</linearGradient>
<linearGradient id="paint1_linear_176_3522" x1="960.734" y1="501.711" x2="960.289" y2="491.769" gradientUnits="userSpaceOnUse">
<stop stop-color="#AA04BE"/>
<stop offset="1" stop-color="#4E5DFA"/>
</linearGradient>
<linearGradient id="paint2_linear_176_3522" x1="989.309" y1="531.271" x2="988.783" y2="519.947" gradientUnits="userSpaceOnUse">
<stop stop-color="#AA04BE"/>
<stop offset="1" stop-color="#4E5DFA"/>
</linearGradient>
<linearGradient id="paint3_linear_176_3522" x1="1002.42" y1="562.484" x2="1001.56" y2="543.61" gradientUnits="userSpaceOnUse">
<stop stop-color="#AA04BE"/>
<stop offset="1" stop-color="#4E5DFA"/>
</linearGradient>
<linearGradient id="paint4_linear_176_3522" x1="1041.48" y1="553.902" x2="1040.31" y2="526.844" gradientUnits="userSpaceOnUse">
<stop stop-color="#AA04BE"/>
<stop offset="1" stop-color="#4E5DFA"/>
</linearGradient>
<linearGradient id="paint5_linear_176_3522" x1="1067.75" y1="506.316" x2="1067.24" y2="495.014" gradientUnits="userSpaceOnUse">
<stop stop-color="#AA04BE"/>
<stop offset="1" stop-color="#4E5DFA"/>
</linearGradient>
<linearGradient id="paint6_linear_176_3522" x1="1046.09" y1="466.594" x2="1045.88" y2="461.796" gradientUnits="userSpaceOnUse">
<stop stop-color="#AA04BE"/>
<stop offset="1" stop-color="#4E5DFA"/>
</linearGradient>
<linearGradient id="paint7_linear_176_3522" x1="1002.75" y1="502.057" x2="1002.05" y2="486.613" gradientUnits="userSpaceOnUse">
<stop stop-color="#AA04BE"/>
<stop offset="1" stop-color="#4E5DFA"/>
</linearGradient>
<linearGradient id="paint8_linear_176_3522" x1="944.984" y1="471.857" x2="944.681" y2="464.982" gradientUnits="userSpaceOnUse">
<stop stop-color="#AA04BE"/>
<stop offset="1" stop-color="#4E5DFA"/>
</linearGradient>
<linearGradient id="paint9_linear_176_3522" x1="913" y1="512.129" x2="965.247" y2="515.438" gradientUnits="userSpaceOnUse">
<stop stop-color="#AA04BE"/>
<stop offset="1" stop-color="#4E5DFA"/>
</linearGradient>
<linearGradient id="paint10_linear_176_3522" x1="908.014" y1="103.172" x2="908.509" y2="92.1135" gradientUnits="userSpaceOnUse">
<stop stop-color="#AA04BE"/>
<stop offset="1" stop-color="#4E5DFA"/>
</linearGradient>
<linearGradient id="paint11_linear_176_3522" x1="876.23" y1="136.051" x2="876.815" y2="123.456" gradientUnits="userSpaceOnUse">
<stop stop-color="#AA04BE"/>
<stop offset="1" stop-color="#4E5DFA"/>
</linearGradient>
<linearGradient id="paint12_linear_176_3522" x1="861.641" y1="170.771" x2="862.6" y2="149.778" gradientUnits="userSpaceOnUse">
<stop stop-color="#AA04BE"/>
<stop offset="1" stop-color="#4E5DFA"/>
</linearGradient>
<linearGradient id="paint13_linear_176_3522" x1="818.197" y1="161.223" x2="819.496" y2="131.126" gradientUnits="userSpaceOnUse">
<stop stop-color="#AA04BE"/>
<stop offset="1" stop-color="#4E5DFA"/>
</linearGradient>
<linearGradient id="paint14_linear_176_3522" x1="788.975" y1="108.295" x2="789.541" y2="95.723" gradientUnits="userSpaceOnUse">
<stop stop-color="#AA04BE"/>
<stop offset="1" stop-color="#4E5DFA"/>
</linearGradient>
<linearGradient id="paint15_linear_176_3522" x1="813.07" y1="64.1104" x2="813.302" y2="58.7733" gradientUnits="userSpaceOnUse">
<stop stop-color="#AA04BE"/>
<stop offset="1" stop-color="#4E5DFA"/>
</linearGradient>
<linearGradient id="paint16_linear_176_3522" x1="861.277" y1="103.557" x2="862.06" y2="86.3783" gradientUnits="userSpaceOnUse">
<stop stop-color="#AA04BE"/>
<stop offset="1" stop-color="#4E5DFA"/>
</linearGradient>
<linearGradient id="paint17_linear_176_3522" x1="925.531" y1="69.9639" x2="925.869" y2="62.3159" gradientUnits="userSpaceOnUse">
<stop stop-color="#AA04BE"/>
<stop offset="1" stop-color="#4E5DFA"/>
</linearGradient>
<linearGradient id="paint18_linear_176_3522" x1="759" y1="123.634" x2="803.052" y2="125.308" gradientUnits="userSpaceOnUse">
<stop stop-color="#AA04BE"/>
<stop offset="1" stop-color="#4E5DFA"/>
</linearGradient>
<linearGradient id="paint19_linear_176_3522" x1="1174.02" y1="233.52" x2="1220.23" y2="235.362" gradientUnits="userSpaceOnUse">
<stop stop-color="#AA04BE"/>
<stop offset="1" stop-color="#4E5DFA"/>
</linearGradient>
<linearGradient id="paint20_linear_176_3522" x1="1226.27" y1="216.899" x2="1225.87" y2="208.163" gradientUnits="userSpaceOnUse">
<stop stop-color="#AA04BE"/>
<stop offset="1" stop-color="#4E5DFA"/>
</linearGradient>
<linearGradient id="paint21_linear_176_3522" x1="1251.38" y1="242.875" x2="1250.92" y2="232.924" gradientUnits="userSpaceOnUse">
<stop stop-color="#AA04BE"/>
<stop offset="1" stop-color="#4E5DFA"/>
</linearGradient>
<linearGradient id="paint22_linear_176_3522" x1="1262.9" y1="270.307" x2="1262.14" y2="253.72" gradientUnits="userSpaceOnUse">
<stop stop-color="#AA04BE"/>
<stop offset="1" stop-color="#4E5DFA"/>
</linearGradient>
<linearGradient id="paint23_linear_176_3522" x1="1297.23" y1="262.766" x2="1296.2" y2="238.987" gradientUnits="userSpaceOnUse">
<stop stop-color="#AA04BE"/>
<stop offset="1" stop-color="#4E5DFA"/>
</linearGradient>
<linearGradient id="paint24_linear_176_3522" x1="1320.31" y1="220.946" x2="1319.87" y2="211.014" gradientUnits="userSpaceOnUse">
<stop stop-color="#AA04BE"/>
<stop offset="1" stop-color="#4E5DFA"/>
</linearGradient>
<linearGradient id="paint25_linear_176_3522" x1="1301.28" y1="186.037" x2="1301.09" y2="181.82" gradientUnits="userSpaceOnUse">
<stop stop-color="#AA04BE"/>
<stop offset="1" stop-color="#4E5DFA"/>
</linearGradient>
<linearGradient id="paint26_linear_176_3522" x1="1263.19" y1="217.203" x2="1262.57" y2="203.631" gradientUnits="userSpaceOnUse">
<stop stop-color="#AA04BE"/>
<stop offset="1" stop-color="#4E5DFA"/>
</linearGradient>
<linearGradient id="paint27_linear_176_3522" x1="1212.42" y1="190.662" x2="1212.16" y2="184.62" gradientUnits="userSpaceOnUse">
<stop stop-color="#AA04BE"/>
<stop offset="1" stop-color="#4E5DFA"/>
</linearGradient>
<clipPath id="clip0_176_3522">
<rect width="1440" height="822" fill="white"/>
</clipPath>
<clipPath id="clip1_176_3522">
<rect width="50.1283" height="36.7607" fill="white" transform="translate(913 512.129)"/>
</clipPath>
<clipPath id="clip2_176_3522">
<rect width="42.1523" height="51.5195" fill="white" transform="translate(759 123.634)"/>
</clipPath>
<clipPath id="clip3_176_3522">
<rect width="52.2661" height="51.5195" fill="white" transform="translate(1170 233.52)"/>
</clipPath>
</defs>
</svg>
