<svg width="76" height="76" viewBox="0 0 76 76" fill="none" xmlns="http://www.w3.org/2000/svg">
<mask id="mask0_176_3495" style="mask-type:alpha" maskUnits="userSpaceOnUse" x="0" y="0" width="76" height="76">
<circle cx="38" cy="38" r="38" fill="#D9D9D9"/>
</mask>
<g mask="url(#mask0_176_3495)">
<path fill-rule="evenodd" clip-rule="evenodd" d="M7.78291 59.5488H-3.65625V71.3156H6.67374V84.207H21.2315V69.3171H7.78291V59.5488Z" fill="white"/>
<path d="M15.5625 58.2109H18.7835V61.5496H15.5625V58.2109Z" fill="white"/>
<path d="M5.5625 48.541H9.23163V52.2134H5.5625V48.541Z" fill="white"/>
<path d="M-5 44.1055H1.1155V50.3195H-5V44.1055Z" fill="white"/>
<path fill-rule="evenodd" clip-rule="evenodd" d="M0.573459 30.8887H-2.0957V33.6535H-0.660858V40.3252H6.66951V32.8883H0.573459V30.8887Z" fill="white"/>
<path d="M14.0039 22H17.6658V25.775H14.0039V22Z" fill="white"/>
<path d="M27.4453 29.3281H28.9997V30.9946H27.4453V29.3281Z" fill="white"/>
<path d="M15.4473 43.9941H20.4512V49.0983H15.4473V43.9941Z" fill="white"/>
<path d="M25.6641 63.5391H27.8916V65.8809H25.6641V63.5391Z" fill="white"/>
</g>
</svg>
