<svg width="20" height="15" viewBox="0 0 20 15" fill="none" xmlns="http://www.w3.org/2000/svg">
<path d="M8.61781 11.4808C8.61781 11.4808 8.669 11.4311 8.61781 11.4311C6.26304 6.46103 3.03802 2.63411 3.03802 2.63411C3.03802 2.63411 1.29754 4.22452 1.39992 5.86463C1.45111 7.10713 2.42373 7.80294 2.42373 7.80294C3.95945 9.24424 7.64518 11.0831 8.51543 11.4808H8.61781ZM8.00352 12.7233C8.00352 12.6736 7.90114 12.6736 7.90114 12.6736L1.75825 12.8724C2.42373 14.0155 3.54993 14.9101 4.72731 14.6616C5.54637 14.4628 7.38923 13.2203 7.95233 12.8227C8.05471 12.7233 8.00352 12.7233 8.00352 12.7233ZM8.1059 12.1766C8.15709 12.1269 8.1059 12.0772 8.1059 12.0772C5.39279 10.2879 0.171341 7.60413 0.171341 7.60413C-0.289376 9.04544 0.324913 10.1885 0.324913 10.1885C0.990392 11.5802 2.27016 11.9778 2.27016 11.9778C2.83326 12.2263 3.44755 12.2263 3.44755 12.2263H8.05471C8.1059 12.2263 8.1059 12.1766 8.1059 12.1766ZM8.51543 0.0497002C8.25947 0.0497002 7.5428 0.248501 7.5428 0.248501C5.9047 0.646103 5.54637 2.08741 5.54637 2.08741C5.23922 2.98201 5.54637 3.97602 5.54637 3.97602C6.10946 6.31193 8.77138 10.1885 9.33448 10.9838L9.38567 11.0335C9.43686 11.0335 9.43686 10.9838 9.43686 10.9838C10.3583 2.28621 8.51543 0.0497002 8.51543 0.0497002ZM10.5631 10.9838C10.6142 10.9838 10.6654 10.934 10.6654 10.934C11.2797 10.0891 13.8905 6.26223 14.4535 3.92632C14.4535 3.92632 14.7607 2.78321 14.4535 2.03771C14.4535 2.03771 14.044 0.596403 12.4059 0.198801C12.4059 0.198801 11.9452 0.0994005 11.4333 0C11.4333 0 9.59043 2.28621 10.5119 10.8843C10.5119 10.9837 10.5631 10.9838 10.5631 10.9838ZM11.9964 12.6736C11.9964 12.6736 11.9452 12.6736 11.9452 12.7233V12.8227C12.5595 13.2203 14.3 14.4628 15.1702 14.6616C15.1702 14.6616 16.7571 15.2083 18.1393 12.8724L11.9964 12.6736ZM19.8286 7.55443C19.8286 7.55443 14.6071 10.2879 11.894 12.0772C11.894 12.0772 11.8428 12.1269 11.8428 12.1766C11.8428 12.1766 11.8428 12.2263 11.894 12.2263H16.6036C16.6036 12.2263 17.0643 12.2263 17.6786 11.9778C17.6786 11.9778 18.9583 11.5802 19.675 10.1388C19.675 10.0891 20.2893 8.94604 19.8286 7.55443ZM11.3821 11.4808C11.3821 11.4808 11.4333 11.5305 11.4845 11.4808C12.3547 11.0335 16.0405 9.24424 17.5762 7.80294C17.5762 7.80294 18.5488 7.05743 18.6 5.86463C18.7024 4.17482 16.9619 2.63411 16.9619 2.63411C16.9619 2.63411 13.7369 6.36163 11.3821 11.3814C11.3821 11.3814 11.3309 11.4311 11.3821 11.4808Z" fill="url(#paint0_linear_176_3490)"/>
<defs>
<linearGradient id="paint0_linear_176_3490" x1="0" y1="0" x2="20.8458" y2="1.31579" gradientUnits="userSpaceOnUse">
<stop stop-color="#AA04BE"/>
<stop offset="1" stop-color="#4E5DFA"/>
</linearGradient>
</defs>
</svg>
