<svg width="28" height="29" viewBox="0 0 28 29" fill="none" xmlns="http://www.w3.org/2000/svg">
<path d="M27.6843 23.0932C27.6296 22.9258 27.5018 22.6677 27.4105 22.5195C26.8354 21.6113 23.7456 19.0825 22.2029 18.2554C21.322 17.7822 20.6694 17.6245 20.1856 17.7726C19.6653 17.9257 19.3914 18.1789 18.5197 19.3119C18.1683 19.7661 17.8077 20.1915 17.7119 20.2584C17.4745 20.4305 17.009 20.5692 16.6804 20.5692C15.9182 20.5643 14.5353 20.0481 13.4718 19.3693C12.6457 18.8435 11.5869 17.9018 10.7745 16.9696C9.816 15.8749 9.16342 14.9092 8.64762 13.8193C7.9813 12.4187 7.81243 11.5629 8.0908 10.9367C8.15928 10.779 8.25058 10.6117 8.2916 10.559C8.3327 10.5113 8.76175 10.1432 9.23636 9.74161C10.1675 8.96723 10.3181 8.79036 10.4915 8.25973C10.7106 7.58566 10.6513 6.8973 10.3135 6.20417C10.0533 5.67831 9.37331 4.53103 8.88041 3.79009C8.22775 2.81494 6.60293 0.730698 6.27884 0.448574C5.69465 -0.0485344 4.94621 -0.134632 4.12004 0.200062C3.24838 0.553818 1.6144 1.93054 0.916078 2.89141C0.286235 3.76142 0.0444182 4.37806 0.00786819 5.19073C-0.0240579 5.85995 0.0306908 6.13721 0.368439 6.99293C3.01103 13.7045 6.95433 19.0633 12.3719 23.3179C15.2016 25.5407 18.1363 27.233 21.1805 28.3899C22.9559 29.0639 23.7273 29.0973 24.6355 28.5429C25.0189 28.3038 25.9682 27.2856 26.4976 26.5446C27.374 25.3113 27.698 24.7424 27.7893 24.2883C27.8532 23.9776 27.803 23.4374 27.6843 23.0932Z" fill="white"/>
</svg>
