<svg width="215" height="392" viewBox="0 0 215 392" fill="none" xmlns="http://www.w3.org/2000/svg">
<path fill-rule="evenodd" clip-rule="evenodd" d="M133.599 155.268H205.629V81.1747H140.583V0.000778198H48.9166V93.7589H133.599V155.268Z" fill="white"/>
<path d="M84.6094 163.693H64.3274V142.67H84.6094V163.693Z" fill="white"/>
<path d="M147.586 224.574H124.482V201.45H147.586V224.574Z" fill="white"/>
<path d="M214.09 252.518H175.582V213.389H214.09V252.518Z" fill="white"/>
<path fill-rule="evenodd" clip-rule="evenodd" d="M178.996 335.73H195.803V318.321H186.768V276.311H140.61V323.139H178.996V335.73Z" fill="white"/>
<path d="M94.4219 391.705H71.3635V367.935H94.4219V391.705Z" fill="white"/>
<path d="M9.78711 345.557H-0.000253677V335.063H9.78711V345.557Z" fill="white"/>
<path d="M85.3438 253.215H53.8352V221.075H85.3438V253.215Z" fill="white"/>
<path d="M21 130.143H6.97381V115.397H21V130.143Z" fill="white"/>
</svg>
