<svg width="40" height="40" viewBox="0 0 40 40" fill="none" xmlns="http://www.w3.org/2000/svg">
<g clip-path="url(#clip0_176_3068)">
<path d="M39.1793 0.0054442C31.371 -0.134556 22.466 3.94711 16.8293 10.2788C11.4426 10.3804 6.19762 12.5888 2.33595 16.4504C2.11095 16.6721 2.03095 17.0038 2.12928 17.3038C2.22928 17.6054 2.48928 17.8238 2.80262 17.8688L9.22595 18.7888L8.43262 19.6771C8.13762 20.0071 8.15262 20.5088 8.46595 20.8221L19.1776 31.5338C19.3393 31.6954 19.5526 31.7771 19.7676 31.7771C19.966 31.7771 20.1643 31.7071 20.3226 31.5654L21.211 30.7721L22.131 37.1954C22.176 37.5088 22.4226 37.7388 22.721 37.8388C22.7976 37.8638 22.8776 37.8754 22.9593 37.8754C23.196 37.8754 23.4376 37.7721 23.6043 37.6071C27.4126 33.7988 29.621 28.5538 29.7226 23.1671C36.061 17.5188 40.176 8.61711 39.9943 0.818778C39.9826 0.375444 39.6243 0.0171109 39.1793 0.0054442ZM31.4993 14.3921C30.6876 15.2038 29.621 15.6104 28.5526 15.6104C27.4843 15.6104 26.4176 15.2038 25.606 14.3921C23.9826 12.7671 23.9826 10.1238 25.606 8.49878C27.231 6.87378 29.8743 6.87378 31.4993 8.49878C33.1243 10.1238 33.1243 12.7688 31.4993 14.3921Z" fill="url(#paint0_linear_176_3068)"/>
<path d="M4.5401 28.1755C2.75676 29.9589 0.308429 38.0155 0.0350957 38.9272C-0.0532377 39.2205 0.028429 39.5389 0.243429 39.7555C0.403429 39.9155 0.615096 40.0005 0.833429 40.0005C0.913429 40.0005 0.993429 39.9889 1.07343 39.9655C1.9851 39.6922 10.0418 37.2439 11.8251 35.4605C13.8334 33.4522 13.8334 30.1839 11.8251 28.1755C9.8151 26.1672 6.54843 26.1689 4.5401 28.1755Z" fill="url(#paint1_linear_176_3068)"/>
</g>
<defs>
<linearGradient id="paint0_linear_176_3068" x1="2.08789" y1="0.00195312" x2="41.6754" y2="1.84258" gradientUnits="userSpaceOnUse">
<stop stop-color="#AA04BE"/>
<stop offset="1" stop-color="#4E5DFA"/>
</linearGradient>
<linearGradient id="paint1_linear_176_3068" x1="0" y1="26.6699" x2="13.9205" y2="27.3165" gradientUnits="userSpaceOnUse">
<stop stop-color="#AA04BE"/>
<stop offset="1" stop-color="#4E5DFA"/>
</linearGradient>
<clipPath id="clip0_176_3068">
<rect width="40" height="40" fill="white"/>
</clipPath>
</defs>
</svg>
