<svg width="36" height="40" viewBox="0 0 36 40" fill="none" xmlns="http://www.w3.org/2000/svg">
<path d="M18.0004 12.3789C13.7978 12.3789 10.3789 15.7978 10.3789 20.0001C10.3789 24.2026 13.7978 27.6215 18.0004 27.6215C22.2026 27.6215 25.6215 24.2026 25.6215 20.0001C25.6215 15.7978 22.2026 12.3789 18.0004 12.3789ZM22.5252 18.5648L17.0653 24.0247C16.8361 24.2539 16.5355 24.3687 16.2352 24.3687C15.9349 24.3687 15.6346 24.2542 15.4055 24.0247L13.319 21.9382C12.8606 21.4802 12.8606 20.7371 13.319 20.2787C13.777 19.8203 14.5201 19.8203 14.9785 20.2787L16.2352 21.5354L20.8657 16.9053C21.3237 16.4469 22.0668 16.4469 22.5252 16.9053C22.9836 17.3633 22.9836 18.1064 22.5252 18.5648Z" fill="url(#paint0_linear_176_3088)"/>
<path d="M34.9912 10.853L34.9899 10.8219C34.9725 10.4377 34.9609 10.0312 34.9539 9.57891C34.9213 7.37341 33.168 5.54907 30.9622 5.42578C26.3633 5.16913 22.8055 3.6695 19.7657 0.706556L19.7397 0.681837C18.7482 -0.227279 17.2526 -0.227279 16.2607 0.681837L16.2348 0.706556C13.195 3.6695 9.63723 5.16913 5.03824 5.42609C2.83274 5.54907 1.07921 7.37341 1.04656 9.57921C1.03984 10.0284 1.02794 10.4349 1.01054 10.8219L1.00871 10.8942C0.919297 15.5838 0.808214 21.4203 2.76072 26.7178C3.83433 29.631 5.4603 32.1634 7.59317 34.245C10.0224 36.6156 13.2041 38.4976 17.0499 39.8385C17.175 39.8822 17.3051 39.9176 17.4375 39.9441C17.6243 39.9813 17.8123 40 18.0002 40C18.1882 40 18.3765 39.9813 18.563 39.9441C18.6954 39.9176 18.8264 39.8819 18.9521 39.8379C22.7933 38.4945 25.9717 36.6116 28.3988 34.2413C30.5307 32.1591 32.1567 29.6262 33.2312 26.7123C35.1911 21.3989 35.0803 15.5515 34.9912 10.853ZM17.9996 29.9692C12.5028 29.9692 8.03109 25.4974 8.03109 20.0006C8.03109 14.5038 12.5028 10.0321 17.9996 10.0321C23.4961 10.0321 27.9682 14.5038 27.9682 20.0006C27.9682 25.4974 23.4961 29.9692 17.9996 29.9692Z" fill="url(#paint1_linear_176_3088)"/>
<defs>
<linearGradient id="paint0_linear_176_3088" x1="10.3789" y1="12.3789" x2="26.2952" y2="13.1182" gradientUnits="userSpaceOnUse">
<stop stop-color="#AA04BE"/>
<stop offset="1" stop-color="#4E5DFA"/>
</linearGradient>
<linearGradient id="paint1_linear_176_3088" x1="0.96875" y1="0" x2="36.5573" y2="1.40762" gradientUnits="userSpaceOnUse">
<stop stop-color="#AA04BE"/>
<stop offset="1" stop-color="#4E5DFA"/>
</linearGradient>
</defs>
</svg>
