<svg width="68" height="17" viewBox="0 0 68 17" fill="none" xmlns="http://www.w3.org/2000/svg">
<g clip-path="url(#clip0_350_288)">
<path d="M3.0511 0.593614H0.662109V12.2983H3.0511V0.593614ZM12.4745 0.593614V8.49319L6.7611 0.593614H4.38649V12.2983H6.7611L6.83306 4.34085L12.4745 12.2983H14.8635V0.593614H12.4745ZM18.7822 12.2983V7.36468H23.114V5.02085H18.7822V2.93744H24.3949V0.593614H16.2061V12.2983H18.7822ZM30.0715 0.347656C27.0349 0.347656 24.5308 2.53234 24.5308 6.43872C24.5308 10.4319 27.0349 12.5153 30.0715 12.5153C33.1082 12.5153 35.6267 10.4464 35.6267 6.43872C35.6267 2.60468 33.2521 0.347656 30.0715 0.347656ZM30.0715 10.0991C28.3446 10.0991 27.0349 8.95617 27.0349 6.43872C27.0349 3.93574 28.3589 2.7783 30.0715 2.7783C31.7985 2.7783 33.1081 3.93574 33.1081 6.43872C33.1081 8.95617 31.8129 10.0991 30.0715 10.0991ZM35.897 0.593614V2.93744H39.9553V12.2983H42.5314V2.93744H46.5898V0.593614H35.897ZM52.4177 0.347656C49.3811 0.347656 46.8769 2.53234 46.8769 6.43872C46.8769 10.4319 49.3811 12.5153 52.4177 12.5153C55.4543 12.5153 57.9728 10.4464 57.9728 6.43872C57.9728 2.60468 55.5982 0.347656 52.4177 0.347656ZM52.4177 10.0991C50.6907 10.0991 49.3811 8.95617 49.3811 6.43872C49.3811 3.93574 50.7051 2.7783 52.4177 2.7783C54.1446 2.7783 55.4543 3.93574 55.4543 6.43872C55.4543 8.95617 54.159 10.0991 52.4177 10.0991ZM58.9029 0.593614V12.2983H61.4789V8.08808C61.4789 8.08808 61.3206 8.08808 63.7816 8.08808C66.3145 8.08808 67.8544 6.30851 67.8544 4.36978C67.8544 2.43106 66.3145 0.593614 63.7672 0.593614H58.9029ZM63.9687 5.81659H61.4789V2.8651H63.9687C64.8753 2.8651 65.5949 3.4583 65.5949 4.36978C65.5949 5.26681 64.8753 5.81659 63.9687 5.81659Z" fill="white"/>
<path d="M0 15.7344H68" stroke="#99D2E1" stroke-width="7"/>
</g>
<defs>
<clipPath id="clip0_350_288">
<rect width="68" height="17" fill="white"/>
</clipPath>
</defs>
</svg>
