<svg width="18" height="18" viewBox="0 0 18 18" fill="none" xmlns="http://www.w3.org/2000/svg">
<path d="M9 0C4.0302 0 0 4.0302 0 9C0 13.9698 4.0302 18 9 18C13.9698 18 18 13.9698 18 9C18 4.0302 13.9698 0 9 0ZM9.19075 14.2401C9.19061 14.2401 9.19089 14.2401 9.19075 14.2401H9.18855C8.28699 14.2397 7.40108 14.0136 6.61432 13.5846L3.75883 14.3335L4.52307 11.5429C4.05162 10.7264 3.8036 9.79994 3.80402 8.85086C3.80525 5.88181 6.22169 3.46632 9.19075 3.46632C10.6316 3.46687 11.9842 4.02773 13.0011 5.04547C14.0181 6.06335 14.5779 7.41632 14.5773 8.85512C14.5761 11.8243 12.1594 14.2401 9.19075 14.2401Z" fill="white"/>
<path d="M9.19202 4.375C6.72243 4.375 4.71399 6.38261 4.71289 8.85042C4.71262 9.69609 4.94937 10.5197 5.39748 11.2323L5.50391 11.4016L5.05154 13.0532L6.74605 12.6088L6.90961 12.7058C7.59694 13.1137 8.38493 13.3294 9.18831 13.3297H9.19009C11.6578 13.3297 13.6662 11.3219 13.6673 8.85399C13.6677 7.65799 13.2024 6.53354 12.3572 5.68759C11.5119 4.84164 10.3877 4.37541 9.19202 4.375ZM11.8254 10.7747C11.7132 11.0889 11.1756 11.3758 10.917 11.4145C10.6851 11.4491 10.3917 11.4635 10.0693 11.3612C9.87372 11.2991 9.62309 11.2163 9.30188 11.0778C7.9518 10.4949 7.07001 9.13593 7.00272 9.04611C6.93543 8.9563 6.45313 8.31648 6.45313 7.65414C6.45313 6.99194 6.80084 6.66634 6.92416 6.53175C7.04762 6.39703 7.19347 6.36339 7.28314 6.36339C7.37282 6.36339 7.46263 6.36421 7.54105 6.36806C7.62372 6.37218 7.73468 6.33661 7.84386 6.59904C7.95605 6.86848 8.22522 7.53069 8.25887 7.59798C8.29251 7.66541 8.3149 7.74396 8.27013 7.83377C8.22522 7.92358 8.07608 8.11736 7.93367 8.29396C7.87393 8.36798 7.79607 8.4339 7.87462 8.56862C7.95303 8.7032 8.2233 9.14389 8.62334 9.50067C9.1375 9.95908 9.57118 10.1011 9.70576 10.1685C9.84021 10.2358 9.91876 10.2245 9.99731 10.1349C10.0757 10.045 10.3338 9.74196 10.4234 9.60724C10.5131 9.47252 10.6029 9.49504 10.7263 9.53995C10.8497 9.58472 11.5114 9.91032 11.646 9.97762C11.7805 10.045 11.8702 10.0787 11.9039 10.1349C11.9376 10.191 11.9376 10.4603 11.8254 10.7747Z" fill="white"/>
</svg>
