<svg width="18" height="18" viewBox="0 0 18 18" fill="none" xmlns="http://www.w3.org/2000/svg">
<path fill-rule="evenodd" clip-rule="evenodd" d="M9 18C13.9706 18 18 13.9706 18 9C18 4.02944 13.9706 0 9 0C4.02944 0 0 4.02944 0 9C0 13.9706 4.02944 18 9 18ZM4.11328 6.75886C4.11328 5.30006 5.30006 4.11328 6.75886 4.11328H11.2411C12.6999 4.11328 13.8867 5.30006 13.8867 6.75886V11.2412C13.8867 12.6999 12.6999 13.8867 11.2412 13.8867H6.75886C5.30006 13.8867 4.11328 12.6999 4.11328 11.2412V6.75886ZM6.32765 9C6.32765 10.4736 7.52644 11.6723 9 11.6723C10.4736 11.6723 11.6723 10.4736 11.6723 9C11.6723 7.52644 10.4736 6.32765 9 6.32765C7.52644 6.32765 6.32765 7.52644 6.32765 9ZM10.9466 6.16823C10.9466 6.60369 11.3008 6.95788 11.7363 6.95788C12.1717 6.95788 12.526 6.60369 12.526 6.16823C12.526 5.73277 12.1717 5.37851 11.7363 5.37851C11.3008 5.37851 10.9466 5.73277 10.9466 6.16823ZM6.90061 8.99997C6.90061 7.84234 7.84245 6.90058 9 6.90058C10.1576 6.90058 11.0994 7.84234 11.0994 8.99997C11.0994 10.1575 10.1576 11.0994 9 11.0994C7.84245 11.0994 6.90061 10.1575 6.90061 8.99997ZM11.7362 5.95154C11.6168 5.95154 11.5196 6.04877 11.5196 6.16823C11.5196 6.28768 11.6168 6.38492 11.7362 6.38492C11.8558 6.38492 11.953 6.28776 11.953 6.16823C11.953 6.0487 11.8558 5.95154 11.7362 5.95154Z" fill="white"/>
</svg>
