<svg width="18" height="18" viewBox="0 0 18 18" fill="none" xmlns="http://www.w3.org/2000/svg">
<path fill-rule="evenodd" clip-rule="evenodd" d="M9 18C13.9706 18 18 13.9706 18 9C18 4.02944 13.9706 0 9 0C4.02944 0 0 4.02944 0 9C0 13.9706 4.02944 18 9 18ZM8.00597 4.97866L7.90315 4.56308C7.45738 4.67278 7.03076 4.84926 6.63776 5.08653L6.85774 5.45352C7.21434 5.23824 7.60147 5.07814 8.00597 4.97866ZM9.99403 4.97866L10.0969 4.56308C10.5431 4.67264 10.9702 4.84913 11.3637 5.08653L11.1423 5.45352C10.7857 5.23824 10.3985 5.07814 9.99403 4.97866ZM4.56321 7.9028C4.67291 7.45705 4.8494 7.03045 5.08668 6.63748L5.45374 6.85744C5.23845 7.21403 5.07835 7.60114 4.97886 8.00562L4.56321 7.9028ZM4.90461 8.37908C4.87356 8.58446 4.85804 8.79189 4.85818 8.9996C4.85804 9.20731 4.87356 9.41474 4.90461 9.62011L4.4811 9.68441C4.41255 9.23044 4.41255 8.76876 4.4811 8.31479L4.90461 8.37908ZM11.1424 12.5457L11.3624 12.9127C10.9698 13.1498 10.5437 13.3262 10.0984 13.4361L9.99551 13.0205C10.3995 12.9209 10.7862 12.7608 11.1424 12.5457ZM13.0955 9.62011C13.1265 9.41474 13.142 9.20731 13.1419 8.9996C13.142 8.79189 13.1265 8.58446 13.0955 8.37908L13.5189 8.31479C13.5875 8.76876 13.5875 9.23044 13.5189 9.68441L13.0955 9.62011ZM13.0212 9.99358L13.4368 10.0964C13.3272 10.5426 13.1507 10.9697 12.9133 11.3631L12.5463 11.1418C12.7616 10.7852 12.9217 10.3981 13.0212 9.99358ZM8.37951 13.0955C8.79089 13.1574 9.20922 13.1574 9.6206 13.0955L9.6849 13.5189C9.23091 13.5875 8.7692 13.5875 8.31522 13.5189L8.37951 13.0955ZM11.4566 12.3336C11.7913 12.0868 12.0872 11.7912 12.3342 11.4567L12.6791 11.7131C12.4065 12.0815 12.0801 12.407 11.7108 12.6785L11.4566 12.3336ZM12.3342 6.54331C12.0872 6.20852 11.7914 5.9127 11.4566 5.66574L11.7136 5.32083C12.0819 5.59257 12.4074 5.91799 12.6791 6.28626L12.3342 6.54331ZM6.54354 5.66574C6.20873 5.9127 5.91289 6.20852 5.66592 6.54331L5.32105 6.28626C5.59278 5.918 5.9182 5.59257 6.28647 5.32083L6.54354 5.66574ZM12.5462 6.8575L12.9132 6.63759C13.1504 7.03013 13.3268 7.45624 13.4367 7.90149L13.021 8.00431C12.9214 7.6003 12.7613 7.21367 12.5462 6.8575ZM9.62049 4.90452C9.20911 4.84263 8.79078 4.84263 8.3794 4.90452L8.31516 4.4811C8.76913 4.41255 9.23082 4.41255 9.68478 4.4811L9.62049 4.90452ZM5.00094 12.9985L5.88572 12.7921L5.98285 13.2127L5.0988 13.4155C5.02782 13.4321 4.95376 13.4304 4.88365 13.4104C4.81353 13.3904 4.74967 13.3529 4.69812 13.3013C4.64656 13.2498 4.60902 13.1859 4.58904 13.1158C4.56905 13.0457 4.56729 12.9716 4.58392 12.9007L4.79024 12.0159L5.20731 12.1138L5.00094 12.9985ZM5.29659 11.731L4.87951 11.634L4.98444 11.1826C4.7979 10.8402 4.65631 10.4751 4.56315 10.0965L4.9788 9.9937C5.07601 10.389 5.23123 10.7678 5.4394 11.1177L5.29659 11.731ZM6.26564 12.7051L6.87902 12.5622L6.88186 12.5594C7.23069 12.7683 7.60849 12.9245 8.00301 13.0228L7.90019 13.4384C7.52153 13.3452 7.15647 13.2036 6.81404 13.0171L6.36271 13.1221L6.26564 12.7051ZM7.11385 5.80263C7.68516 5.46531 8.33642 5.28721 8.99989 5.28687L8.99994 5.28698C9.5757 5.28649 10.1437 5.41987 10.659 5.67661C11.1743 5.93334 11.6229 6.30638 11.9693 6.76626C12.3157 7.22615 12.5504 7.76027 12.6548 8.32644C12.7593 8.89261 12.7306 9.47531 12.5712 10.0285C12.4117 10.5817 12.1258 11.0903 11.736 11.514C11.3462 11.9377 10.8632 12.265 10.3252 12.4699C9.78718 12.6749 9.20885 12.752 8.63593 12.695C8.063 12.6381 7.51115 12.4487 7.024 12.1419L5.5008 12.499L5.8579 10.9758C5.50485 10.4141 5.30875 9.7681 5.29 9.10493C5.27125 8.44176 5.43054 7.78567 5.75129 7.20492C6.07203 6.62416 6.54253 6.13994 7.11385 5.80263Z" fill="white"/>
</svg>
