<svg width="30" height="34" viewBox="0 0 30 34" fill="none" xmlns="http://www.w3.org/2000/svg">
<path fill-rule="evenodd" clip-rule="evenodd" d="M24.8276 33.7992H18.1901L7.08095 16.9958V33.7992H0.443359V6.55041H7.08095L18.1901 23.4238V17.904H22.522V16.1574H19.273V12.4544H22.8712V15.5285H27.0983V20.2098H24.8276V33.7992ZM28.4957 14.4455H29.1944V13.712H28.4957V14.4455ZM25.3168 13.0832H26.3297V12.0352H25.3168V13.0832ZM22.1725 10.1486H23.3254V8.99582H22.1725V10.1486ZM19.7271 4.31462H20.2162V6.41067H22.522V4.07006H20.6005V3.44125H19.7622V4.31462H19.7271ZM18.8538 9.5548H20.7753V7.59843H18.8538V9.5548ZM29.0546 3.47617H29.5439V2.95215H29.0546V3.47617ZM25.2817 9.17051H26.8538V7.56351H25.2817V9.17051ZM24.8276 1.83424H25.9804V0.646484H24.8276V1.83424Z" fill="white"/>
</svg>
