<svg width="42" height="14" viewBox="0 0 42 14" fill="none" xmlns="http://www.w3.org/2000/svg">
<path d="M1 6.15L0.15 6.15L0.15 7.85L1 7.85L1 6.15ZM41.601 7.60104C41.933 7.26909 41.933 6.7309 41.601 6.39896L36.1917 0.989589C35.8597 0.657644 35.3215 0.657644 34.9896 0.989589C34.6576 1.32154 34.6576 1.85972 34.9896 2.19167L39.7979 7L34.9896 11.8083C34.6576 12.1403 34.6576 12.6785 34.9896 13.0104C35.3215 13.3424 35.8597 13.3424 36.1917 13.0104L41.601 7.60104ZM1 7.85L41 7.85L41 6.15L1 6.15L1 7.85Z" fill="black"/>
</svg>
