<svg width="42" height="14" viewBox="0 0 42 14" fill="none" xmlns="http://www.w3.org/2000/svg">
<path d="M41 6.15L41.85 6.15L41.85 7.85L41 7.85L41 6.15ZM0.39896 7.60104C0.0670128 7.26909 0.0670128 6.7309 0.39896 6.39896L5.80833 0.989589C6.14027 0.657644 6.67846 0.657644 7.01041 0.989589C7.34235 1.32154 7.34235 1.85972 7.01041 2.19167L2.20208 7L7.01041 11.8083C7.34235 12.1403 7.34235 12.6785 7.01041 13.0104C6.67846 13.3424 6.14027 13.3424 5.80833 13.0104L0.39896 7.60104ZM41 7.85L1 7.85L1 6.15L41 6.15L41 7.85Z" fill="black"/>
</svg>
